HIERARCHY
ROOT Hips
{
	OFFSET -0.001795 -0.223333 0.028219
	CHANNELS 6 Xposition Yposition Zposition Zrotation Yrotation Xrotation 
	JOINT LeftUpLeg
	{
		OFFSET 0.069520 -0.091406 -0.006815
		CHANNELS 3 Zrotation Yrotation Xrotation
		JOINT LeftLeg
		{
			OFFSET 0.034277 -0.375199 -0.004496
			CHANNELS 3 Zrotation Yrotation Xrotation
			JOINT LeftFoot
			{
				OFFSET -0.013596 -0.397961 -0.043693
				CHANNELS 3 Zrotation Yrotation Xrotation
				JOINT LeftToe
				{
					OFFSET 0.026358 -0.055791 0.119288
					CHANNELS 3 Zrotation Yrotation Xrotation
					End Site
					{
						OFFSET 0.000000 0.000000 0.000000
					}
				}
			}
		}
	}
	JOINT RightUpLeg
	{
		OFFSET -0.067670 -0.090522 -0.004320
		CHANNELS 3 Zrotation Yrotation Xrotation
		JOINT RightLeg
		{
			OFFSET -0.038290 -0.382569 -0.008850
			CHANNELS 3 Zrotation Yrotation Xrotation
			JOINT RightFoot
			{
				OFFSET 0.015774 -0.398415 -0.042312
				CHANNELS 3 Zrotation Yrotation Xrotation
				JOINT RightToe
				{
					OFFSET -0.025372 -0.048144 0.123348
					CHANNELS 3 Zrotation Yrotation Xrotation
					End Site
					{
						OFFSET 0.000000 0.000000 0.000000
					}
				}
			}
		}
	}
	JOINT Spine
	{
		OFFSET -0.002533 0.108963 -0.026696
		CHANNELS 3 Zrotation Yrotation Xrotation
		JOINT Spine1
		{
			OFFSET 0.005487 0.135180 0.001092
			CHANNELS 3 Zrotation Yrotation Xrotation
			JOINT Spine2
			{
				OFFSET 0.001457 0.052922 0.025425
				CHANNELS 3 Zrotation Yrotation Xrotation
				JOINT Neck
				{
					OFFSET -0.002778 0.213870 -0.042857
					CHANNELS 3 Zrotation Yrotation Xrotation
					JOINT Head
					{
						OFFSET 0.005152 0.064970 0.051349
						CHANNELS 3 Zrotation Yrotation Xrotation
						End Site
						{
							OFFSET 0.000000 0.000000 0.000000
						}
					}
				}
				JOINT LeftShoulder
				{
					OFFSET 0.078845 0.121749 -0.034090
					CHANNELS 3 Zrotation Yrotation Xrotation
					JOINT LeftArm
					{
						OFFSET 0.090977 0.030469 -0.008868
						CHANNELS 3 Zrotation Yrotation Xrotation
						JOINT LeftForeArm
						{
							OFFSET 0.259612 -0.012772 -0.027456
							CHANNELS 3 Zrotation Yrotation Xrotation
							JOINT LeftHand
							{
								OFFSET 0.249234 0.008986 -0.001171
								CHANNELS 3 Zrotation Yrotation Xrotation
								End Site
								{
									OFFSET 0.000000 0.000000 0.000000
								}
							}
						}
					}
				}
				JOINT RightShoulder
				{
					OFFSET -0.081759 0.118833 -0.038615
					CHANNELS 3 Zrotation Yrotation Xrotation
					JOINT RightArm
					{
						OFFSET -0.096012 0.032551 -0.009143
						CHANNELS 3 Zrotation Yrotation Xrotation
						JOINT RightForeArm
						{
							OFFSET -0.253742 -0.013329 -0.021401
							CHANNELS 3 Zrotation Yrotation Xrotation
							JOINT RightHand
							{
								OFFSET -0.255298 0.007772 -0.005559
								CHANNELS 3 Zrotation Yrotation Xrotation
								End Site
								{
									OFFSET 0.000000 0.000000 0.000000
								}
							}
						}
					}
				}
			}
		}
	}
}
MOTION
Frames: 10
Frame Time: 0.050000
-0.059140 0.949436 0.001214 5.063305 -23.670641 10.613446 1.453585 -0.795517 -20.021955 -5.277549 0.913481 1.726235 5.195894 10.425432 17.021054 0.000000 0.000000 0.000000 -11.327000 1.359559 -10.879837 7.412908 -0.298045 9.486802 -13.055849 -28.435047 11.584396 0.000000 0.000000 0.000000 1.596477 -0.260617 20.419069 10.057520 -2.649578 -16.997810 6.704177 12.075198 28.234994 10.404222 -5.252582 -20.849724 0.000000 0.000000 0.000000 -27.689530 0.266815 -1.608831 -41.796060 -14.002085 -2.564061 -84.626791 -63.855979 65.471854 0.000000 0.000000 0.000000 -1.818760 16.354882 5.448880 6.812003 28.795158 -1.381574 -53.921485 33.246570 -15.479365 0.000000 0.000000 0.000000 
-0.059837 0.949270 0.001578 5.084033 -22.696152 10.593440 1.337918 -0.855429 -20.177616 -5.365535 0.924475 1.976485 4.803444 9.961450 16.666024 0.000000 0.000000 0.000000 -11.206548 1.321534 -10.775805 7.484732 -0.330238 9.682498 -13.598967 -29.242627 11.879194 0.000000 0.000000 0.000000 1.851294 -0.342216 20.843721 9.743582 -2.544801 -17.238906 6.524535 11.966269 27.976859 10.436705 -5.215554 -20.812985 0.000000 0.000000 0.000000 -27.991614 -0.174310 -1.508926 -41.764779 -14.424684 -2.367654 -85.338094 -64.480719 66.585433 0.000000 0.000000 0.000000 -2.414128 16.387351 5.403591 6.630015 28.151549 -1.366764 -54.313878 32.850096 -15.326933 0.000000 0.000000 0.000000 
-0.060857 0.949239 0.001924 5.064919 -21.772988 10.555635 1.162800 -0.924790 -20.039874 -5.372156 0.904611 1.775489 4.468617 9.576517 16.526284 0.000000 0.000000 0.000000 -11.136464 1.281071 -10.476068 7.638744 -0.379650 9.346201 -14.153151 -30.031355 12.305452 0.000000 0.000000 0.000000 2.054329 -0.422253 20.999562 9.313537 -2.425022 -17.360193 6.310595 11.921788 27.918361 10.463529 -5.208627 -20.647418 0.000000 0.000000 0.000000 -28.027117 -0.744279 -1.301131 -42.059820 -14.707292 -2.236351 -86.435873 -65.222083 68.221390 0.000000 0.000000 0.000000 -2.466272 16.681017 5.497348 6.409621 27.201959 -1.355078 -54.434367 32.472542 -15.099525 0.000000 0.000000 0.000000 
-0.062014 0.949073 0.002196 5.027153 -20.810151 10.580072 1.052703 -0.982452 -19.861011 -5.222538 0.857931 1.624470 3.846357 8.724701 15.958099 0.000000 0.000000 0.000000 -10.935928 1.237398 -10.218742 7.630538 -0.409396 9.105630 -14.668972 -30.769688 12.471139 0.000000 0.000000 0.000000 2.144789 -0.474482 21.356979 9.128292 -2.329148 -17.749896 6.385091 12.093487 27.872643 10.258706 -4.976790 -20.656523 0.000000 0.000000 0.000000 -28.016466 -1.339662 -1.184541 -42.226603 -14.738495 -2.146555 -87.402284 -65.417734 69.056709 0.000000 0.000000 0.000000 -2.976272 16.999879 5.538752 6.714935 26.172236 -1.265696 -53.183371 33.578660 -15.101101 0.000000 0.000000 0.000000 
-0.063184 0.949072 0.002310 5.081739 -20.170945 10.467189 0.914408 -1.027930 -19.559290 -5.227616 0.842836 1.396792 3.464183 8.208842 15.766040 0.000000 0.000000 0.000000 -10.882512 1.215680 -10.297636 7.622016 -0.425608 9.316825 -14.898185 -31.122912 12.550126 0.000000 0.000000 0.000000 2.174883 -0.503346 21.576965 8.952282 -2.303507 -17.581881 6.137066 12.135799 27.646699 10.227457 -4.947287 -20.406610 0.000000 0.000000 0.000000 -28.133143 -1.651777 -1.155303 -42.146644 -14.696301 -2.101824 -86.955223 -65.385327 68.415897 0.000000 0.000000 0.000000 -2.925169 17.532977 5.717214 6.738452 25.249797 -1.227740 -52.009984 35.392887 -15.541674 0.000000 0.000000 0.000000 
-0.064357 0.948723 0.002143 5.155955 -19.675127 10.430425 0.747315 -1.074855 -19.464386 -5.142699 0.820656 1.400315 3.108321 7.678464 15.192258 0.000000 0.000000 0.000000 -11.064166 1.206830 -10.327953 7.909503 -0.476366 9.279423 -15.194060 -31.588087 12.330202 0.000000 0.000000 0.000000 2.301390 -0.551532 21.704239 8.765194 -2.271640 -17.421442 6.097393 12.138066 27.627156 9.643582 -4.465528 -20.763033 0.000000 0.000000 0.000000 -27.843116 -2.048841 -0.985715 -42.204455 -14.729027 -2.055796 -85.978642 -65.546705 67.544283 0.000000 0.000000 0.000000 -3.175963 17.892898 5.794084 6.802563 24.766247 -1.196205 -50.182984 37.761400 -15.989960 0.000000 0.000000 0.000000 
-0.065759 0.948668 0.001498 5.398961 -19.321269 10.391678 0.531718 -1.124285 -19.405061 -5.031432 0.800350 1.545520 2.831179 7.235555 14.576860 0.000000 0.000000 0.000000 -11.156752 1.202191 -10.509740 7.814170 -0.477170 9.264436 -15.230418 -31.697816 12.041007 0.000000 0.000000 0.000000 2.234389 -0.545300 21.928759 8.729751 -2.270676 -17.315536 5.897992 11.978780 27.635477 9.156421 -4.113620 -20.965456 0.000000 0.000000 0.000000 -27.577484 -2.107170 -0.950888 -42.433761 -14.576718 -2.104430 -83.949688 -66.034106 66.146554 0.000000 0.000000 0.000000 -3.358161 18.357209 5.911617 7.549933 24.584113 -1.115755 -49.429280 40.387815 -16.929058 0.000000 0.000000 0.000000 
-0.067465 0.948294 0.000380 5.511267 -18.883523 10.364067 0.360309 -1.168015 -19.428998 -4.975442 0.786081 1.597416 2.639660 6.965787 14.344119 0.000000 0.000000 0.000000 -11.159719 1.193351 -10.744801 7.896089 -0.500012 9.355067 -15.483759 -32.100453 12.062019 0.000000 0.000000 0.000000 2.230765 -0.561623 22.008838 8.680282 -2.290485 -16.992854 5.875843 11.899516 27.799489 8.669641 -3.690625 -21.533491 0.000000 0.000000 0.000000 -27.125962 -2.142483 -0.952739 -42.926925 -14.565073 -2.109940 -82.353345 -66.159494 64.793021 0.000000 0.000000 0.000000 -3.089760 18.659093 6.046107 8.195234 25.013259 -1.049775 -49.472076 41.226133 -17.291043 0.000000 0.000000 0.000000 
-0.069396 0.948094 -0.001260 5.638251 -18.751477 10.450527 0.249455 -1.194388 -19.520099 -4.932429 0.777512 1.629887 2.576770 6.859825 14.115045 0.000000 0.000000 0.000000 -11.159420 1.201888 -11.153390 7.954675 -0.510306 9.513759 -15.622497 -32.347955 11.990056 0.000000 0.000000 0.000000 1.827615 -0.468900 22.088018 8.984941 -2.370721 -16.913351 5.929983 12.051388 28.059736 8.592358 -3.535891 -21.987250 0.000000 0.000000 0.000000 -26.699789 -2.125206 -1.024245 -43.174791 -14.649609 -2.080481 -81.689696 -66.821148 64.779630 0.000000 0.000000 0.000000 -2.634320 19.048952 6.247996 9.425121 26.108297 -0.917376 -50.943306 40.968586 -17.636150 0.000000 0.000000 0.000000 
-0.071186 0.947794 -0.003244 5.443428 -18.811299 10.615196 0.489992 -1.153225 -19.705270 -4.907361 0.771498 1.544105 2.462548 6.674683 14.196693 0.000000 0.000000 0.000000 -10.827707 1.215148 -11.711061 7.928972 -0.503070 9.666233 -15.580690 -32.333941 11.963446 0.000000 0.000000 0.000000 1.542724 -0.400287 22.105224 9.201268 -2.447822 -16.698873 6.161371 12.416949 28.200654 8.711687 -3.499549 -22.362870 0.000000 0.000000 0.000000 -26.162408 -2.166057 -1.080589 -43.693386 -14.654823 -2.063877 -81.003053 -67.056185 64.300200 0.000000 0.000000 0.000000 -1.861497 19.759119 6.613420 9.632946 27.849925 -0.858603 -51.370484 38.844772 -16.650405 0.000000 0.000000 0.000000 
